# xmcd
#
# Track frame offsets:
# 150
# 20787
# 38660
# 61674
# 75654
# 94630
# 119114
# 144262
# 173295
#
# Disc length: 2472 seconds
#
#
# Revision: 0
# Processed by: cddbd v1.5.2PL0 Copyright (c) Steve Scherf et al.
# Submitted via: FreeRIP 2.942 
#
DISCID=6709a609
DTITLE=Marieluise Ritter - Der kugelrunde Hund
DYEAR=1900
DGENRE=Kinder
TTITLE0=Kapitel 1
TTITLE1=Kapitel 2
TTITLE2=Kapitel 3
TTITLE3=Kapitel 4
TTITLE4=Kapitel 5
TTITLE5=Kapitel 6
TTITLE6=Kapitel 7
TTITLE7=Kapitel 8
TTITLE8=Kapitel 9
EXTD=
EXTT0=
EXTT1=
EXTT2=
EXTT3=
EXTT4=
EXTT5=
EXTT6=
EXTT7=
EXTT8=
PLAYORDER=
